<svg width="11" height="14" viewBox="0 0 11 14" fill="none" xmlns="http://www.w3.org/2000/svg">
<path d="M2.604 7.049C2.69459 7.01228 2.79201 6.99319 2.89051 6.99285C2.989 6.99251 3.08656 7.01093 3.17743 7.04703C3.2683 7.08313 3.35063 7.13616 3.41955 7.20301C3.48847 7.26985 3.54259 7.34914 3.5787 7.43619C3.61481 7.52325 3.63219 7.61629 3.6298 7.70983C3.6274 7.80337 3.6053 7.89551 3.56478 7.98079C3.52427 8.06608 3.46616 8.14278 3.39391 8.20637C3.32165 8.26996 3.23671 8.31913 3.14411 8.351C2.65156 8.53537 2.22882 8.8563 1.9309 9.27203C1.63298 9.68777 1.47366 10.1791 1.47368 10.682V11.9C1.47368 12.0857 1.55132 12.2637 1.6895 12.395C1.82768 12.5263 2.0151 12.6 2.21053 12.6H8.10526C8.30069 12.6 8.4881 12.5263 8.62629 12.395C8.76447 12.2637 8.8421 12.0857 8.8421 11.9V10.7471C8.84219 10.228 8.67621 9.7212 8.36618 9.29378C8.05615 8.86636 7.61671 8.53855 7.10611 8.3538C7.01292 8.32308 6.92718 8.2749 6.85397 8.21212C6.78075 8.14934 6.72154 8.07323 6.67986 7.98831C6.63818 7.90338 6.61487 7.81138 6.61131 7.71774C6.60775 7.6241 6.62402 7.53073 6.65915 7.44317C6.69428 7.35562 6.74756 7.27565 6.81582 7.20802C6.88408 7.14039 6.96594 7.08646 7.05655 7.04944C7.14716 7.01242 7.24467 6.99306 7.3433 6.9925C7.44193 6.99194 7.53967 7.0102 7.63074 7.0462C8.42034 7.33192 9.09992 7.83883 9.57942 8.49975C10.0589 9.16067 10.3157 9.9444 10.3158 10.7471V11.9C10.3158 12.457 10.0829 12.9911 9.66834 13.3849C9.25379 13.7788 8.69153 14 8.10526 14H2.21053C1.62426 14 1.062 13.7788 0.647448 13.3849C0.232894 12.9911 0 12.457 0 11.9L0 10.682C0.00010139 9.89811 0.24852 9.13239 0.71294 8.48445C1.17736 7.83651 1.83628 7.33634 2.604 7.049ZM5.15789 0C5.93959 0 6.68926 0.294999 7.242 0.820101C7.79474 1.3452 8.10526 2.05739 8.10526 2.8V4.2C8.10526 4.94261 7.79474 5.6548 7.242 6.1799C6.68926 6.705 5.93959 7 5.15789 7C4.3762 7 3.62653 6.705 3.07379 6.1799C2.52105 5.6548 2.21053 4.94261 2.21053 4.2V2.8C2.21053 2.05739 2.52105 1.3452 3.07379 0.820101C3.62653 0.294999 4.3762 0 5.15789 0ZM5.15789 1.4C4.76705 1.4 4.39221 1.5475 4.11584 1.81005C3.83947 2.0726 3.68421 2.4287 3.68421 2.8V4.2C3.68421 4.5713 3.83947 4.9274 4.11584 5.18995C4.39221 5.4525 4.76705 5.6 5.15789 5.6C5.54874 5.6 5.92358 5.4525 6.19995 5.18995C6.47632 4.9274 6.63158 4.5713 6.63158 4.2V2.8C6.63158 2.4287 6.47632 2.0726 6.19995 1.81005C5.92358 1.5475 5.54874 1.4 5.15789 1.4Z" fill="white"/>
</svg>
