<svg width="18" height="16" viewBox="0 0 18 16" fill="none" xmlns="http://www.w3.org/2000/svg">
<path d="M0 1.7778C0 1.3063 0.187303 0.854107 0.520705 0.520705C0.854107 0.187303 1.3063 0 1.7778 0H16.0002C16.4717 0 16.9239 0.187303 17.2573 0.520705C17.5907 0.854107 17.778 1.3063 17.778 1.7778V11.5557C17.778 12.0272 17.5907 12.4794 17.2573 12.8128C16.9239 13.1462 16.4717 13.3335 16.0002 13.3335H11.9237L9.51745 15.7397C9.35075 15.9064 9.1247 16 8.88899 16C8.65329 16 8.42724 15.9064 8.26054 15.7397L5.85429 13.3335H1.7778C1.3063 13.3335 0.854107 13.1462 0.520705 12.8128C0.187303 12.4794 0 12.0272 0 11.5557V1.7778ZM16.0002 1.7778H1.7778V11.5557H6.2223C6.45803 11.5557 6.68409 11.6494 6.85075 11.8161L8.88899 13.8544L10.9272 11.8161C11.0939 11.6494 11.32 11.5557 11.5557 11.5557H16.0002V1.7778ZM3.5556 4.88895C3.5556 4.6532 3.64925 4.4271 3.81595 4.2604C3.98265 4.0937 4.20875 4.00005 4.4445 4.00005H13.3335C13.5692 4.00005 13.7953 4.0937 13.962 4.2604C14.1287 4.4271 14.2224 4.6532 14.2224 4.88895C14.2224 5.1247 14.1287 5.35079 13.962 5.51749C13.7953 5.68419 13.5692 5.77785 13.3335 5.77785H4.4445C4.20875 5.77785 3.98265 5.68419 3.81595 5.51749C3.64925 5.35079 3.5556 5.1247 3.5556 4.88895ZM3.5556 8.44454C3.5556 8.20879 3.64925 7.9827 3.81595 7.816C3.98265 7.6493 4.20875 7.55565 4.4445 7.55565H9.77789C10.0136 7.55565 10.2397 7.6493 10.4064 7.816C10.5731 7.9827 10.6668 8.20879 10.6668 8.44454C10.6668 8.6803 10.5731 8.90639 10.4064 9.07309C10.2397 9.23979 10.0136 9.33344 9.77789 9.33344H4.4445C4.20875 9.33344 3.98265 9.23979 3.81595 9.07309C3.64925 8.90639 3.5556 8.6803 3.5556 8.44454Z" fill="#224523"/>
</svg>
