<svg width="148" height="148" viewBox="0 0 148 148" fill="none" xmlns="http://www.w3.org/2000/svg">
<circle cx="74" cy="74" r="74" fill="#ECFFF0"/>
<circle cx="74" cy="74" r="65" fill="white"/>
<circle cx="74" cy="74" r="60" fill="#ECFFF0"/>
<path d="M75.3549 46C75.0516 45.9995 74.7519 46.066 74.4781 46.1947C74.2043 46.3234 73.9633 46.511 73.7728 46.7437L73.4117 47.0076C66.4138 44.8725 58.43 46.4398 52.8722 51.7177C50.5448 53.8943 48.8134 56.6155 47.8389 59.6283C46.8644 62.6412 46.6784 65.8479 47.2982 68.9506C47.2293 69.0105 47.1617 69.0718 47.0953 69.1345L43.9351 72.1333C43.3238 72.7048 42.8369 73.3931 42.5043 74.1561C42.1716 74.9192 42 75.741 42 76.5714C42 77.4019 42.1716 78.2237 42.5043 78.9868C42.8369 79.7498 43.3238 80.438 43.9351 81.0096C45.5497 82.545 47.7891 83.1208 49.8702 82.7369C50.1258 83.8924 50.7221 84.992 51.6673 85.8876C52.9128 87.0711 54.5314 87.6829 56.1623 87.7269C56.2069 89.2742 56.8519 90.8096 58.0973 91.9931C59.3428 93.1766 60.9655 93.7924 62.5963 93.8324C62.6369 95.3797 63.286 96.9191 64.5314 98.1026C65.7237 99.2178 67.2856 99.8696 68.928 99.9372C70.5703 100.005 72.1819 99.4838 73.4645 98.4705L75.2373 100.15C77.8336 102.617 82.0446 102.617 84.6409 100.15C85.8823 98.9742 86.5273 97.4469 86.5841 95.9035C88.2516 95.8611 89.8431 95.2067 91.0466 94.0683C92.2879 92.8887 92.933 91.3614 92.9816 89.818C94.6304 89.761 96.2002 89.1077 97.3914 87.9828C98.3772 87.0511 98.9857 85.8956 99.221 84.6881C100.265 84.8686 101.338 84.8049 102.352 84.5021C103.367 84.1993 104.295 83.6659 105.063 82.9448C105.675 82.3732 106.162 81.6847 106.495 80.9213C106.828 80.1579 107 79.3356 107 78.5047C107 77.6737 106.828 76.8514 106.495 76.088C106.162 75.3246 105.675 74.6361 105.063 74.0645L102.142 71.2936L102.738 69.0945C103.945 64.5987 103.334 59.8168 101.034 55.756C97.6429 49.7345 91.0628 46.016 83.9472 46.016H78.9573C78.7425 46.0055 78.5274 46.0002 78.3123 46H75.3549ZM85.3062 60.8579L95.0628 70.1221L95.0749 70.1301L102.138 76.8393C102.367 77.0538 102.55 77.312 102.675 77.5983C102.8 77.8846 102.864 78.193 102.864 78.5047C102.864 78.8163 102.8 79.1247 102.675 79.411C102.55 79.6973 102.367 79.9555 102.138 80.17C101.664 80.6123 101.036 80.8588 100.383 80.8588C99.7305 80.8588 99.1026 80.6123 98.6287 80.17L93.2697 75.0841C92.8769 74.7126 92.3536 74.5052 91.8092 74.5052C91.2649 74.5052 90.7416 74.7126 90.3488 75.0841L90.292 75.132C90.1007 75.3106 89.9484 75.5258 89.8443 75.7643C89.7402 76.0028 89.6865 76.2598 89.6865 76.5195C89.6865 76.7791 89.7402 77.0361 89.8443 77.2746C89.9484 77.5132 90.1007 77.7283 90.292 77.9069L94.4705 81.8733C95.4441 82.7929 95.4441 84.2883 94.4705 85.2119C94.0396 85.6143 93.4801 85.8563 92.8879 85.8965C92.2957 85.9366 91.7078 85.7723 91.2251 85.4318C90.8222 85.1449 90.3301 85.0063 89.8343 85.0399C89.3385 85.0735 88.8703 85.2772 88.5111 85.6157C88.16 85.9466 87.948 86.3954 87.9172 86.8732C87.8864 87.351 88.039 87.8227 88.3447 88.1947C88.7089 88.6442 88.8885 89.2122 88.8479 89.7861C88.8074 90.36 88.5496 90.8979 88.1257 91.2934C87.6887 91.7018 87.1194 91.9451 86.5182 91.9802C85.917 92.0153 85.3226 91.84 84.8397 91.4853C84.4389 91.189 83.9447 91.0417 83.4444 91.0695C82.9441 91.0973 82.4699 91.2984 82.1054 91.6373C81.7498 91.9676 81.5341 92.4183 81.5017 92.8989C81.4694 93.3796 81.6227 93.8544 81.931 94.2282C82.3037 94.6838 82.4885 95.2611 82.4487 95.845C82.4088 96.4289 82.1472 96.9766 81.716 97.3789C81.2358 97.828 80.599 98.0784 79.9371 98.0784C79.2751 98.0784 78.6383 97.828 78.1582 97.3789L76.4016 95.7116L77.0425 95.1038C77.6545 94.5322 78.1419 93.8437 78.4749 93.0803C78.808 92.3169 78.9798 91.4946 78.9798 90.6637C78.9798 89.8327 78.808 89.0104 78.4749 88.247C78.1419 87.4836 77.6545 86.7951 77.0425 86.2235C75.8301 85.0782 74.2265 84.4221 72.5476 84.3842C72.4984 82.7652 71.803 81.2307 70.6125 80.114C69.3985 78.9693 67.7933 78.3145 66.1136 78.2787C66.0643 76.6597 65.3689 75.1252 64.1785 74.0085C63.3991 73.2774 62.4543 72.7397 61.4222 72.4401C60.3901 72.1404 59.3004 72.0873 58.2434 72.2852C57.976 71.082 57.3502 69.985 56.4462 69.1345C55.7533 68.4827 54.9275 67.9838 54.0238 67.6708C53.1201 67.3578 52.1592 67.238 51.2049 67.3192C50.8853 64.9763 51.1341 62.592 51.931 60.3622C52.7279 58.1325 54.0501 56.1208 55.789 54.4925C57.5462 52.838 59.653 51.587 61.9584 50.8294C64.2638 50.0718 66.7107 49.8262 69.1237 50.1103L63.2211 54.3886C62.4658 54.9294 61.8297 55.6155 61.3509 56.4054C60.8722 57.1954 60.5609 58.0727 60.4358 58.9845C60.3107 59.8963 60.3744 60.8236 60.623 61.7105C60.8716 62.5974 61.3 63.4254 61.8823 64.1446C63.06 65.6 64.7617 66.5518 66.6334 66.802C68.505 67.0522 70.4025 66.5816 71.931 65.488L78.3245 60.8619H85.3022L85.3062 60.8579ZM65.6227 57.6072L76.1379 49.9984H78.3123C78.5112 49.9973 78.7101 50.0027 78.9087 50.0144H83.9472C89.6429 50.0144 94.8397 52.9931 97.4887 57.6992C99.2818 60.8819 99.7524 64.5804 98.8153 68.0709L98.8031 68.1109L87.6064 57.4473C87.2269 57.0721 86.7119 56.8607 86.1744 56.8595H77.6551C77.2245 56.8604 76.8054 56.9962 76.4584 57.2474L69.5294 62.2613C68.8488 62.7417 68.0076 62.9475 67.1781 62.8368C66.3486 62.726 65.5933 62.3071 65.0669 61.6656C64.8216 61.3677 64.6407 61.0235 64.5354 60.6542C64.4302 60.2849 64.4027 59.8982 64.4548 59.518C64.5068 59.1378 64.6373 58.7722 64.8382 58.4435C65.039 58.1149 65.306 57.8303 65.6227 57.6072ZM67.4158 92.0331L67.4564 91.9931L70.6125 88.9943L70.649 88.9624C71.1256 88.5353 71.7484 88.3016 72.3925 88.3083C73.0366 88.315 73.6543 88.5615 74.1216 88.9983C74.3511 89.2128 74.5338 89.471 74.6587 89.7573C74.7835 90.0436 74.8479 90.352 74.8479 90.6637C74.8479 90.9753 74.7835 91.2837 74.6587 91.57C74.5338 91.8563 74.3511 92.1145 74.1216 92.329L70.9614 95.3277C70.4875 95.7701 69.8596 96.0166 69.2069 96.0166C68.5541 96.0166 67.9262 95.7701 67.4523 95.3277C67.2259 95.1165 67.0448 94.8626 66.9198 94.5811C66.7948 94.2995 66.7285 93.9961 66.7247 93.6889C66.7209 93.3816 66.7798 93.0767 66.8978 92.7923C67.0158 92.5079 67.1946 92.2497 67.4158 92.0331ZM67.7282 86.1875L67.6876 86.2235L64.5314 89.2222L64.4908 89.2582C64.014 89.6836 63.3917 89.9159 62.7486 89.9085C62.1055 89.901 61.4889 89.6545 61.0223 89.2183C60.7954 89.0061 60.6142 88.751 60.4896 88.4683C60.3649 88.1857 60.2993 87.8811 60.2966 87.5729C60.294 87.2646 60.3543 86.959 60.4741 86.6743C60.5939 86.3896 60.7707 86.1315 60.9939 85.9156L61.0223 85.8876L64.1785 82.8889L64.2069 82.8609C64.6829 82.4304 65.3068 82.1939 65.9528 82.1991C66.5988 82.2043 67.2188 82.4508 67.6876 82.8889C67.9146 83.1002 68.0962 83.3543 68.2216 83.6362C68.3469 83.9181 68.4135 84.2219 68.4173 84.5297C68.4211 84.8374 68.362 85.1428 68.2436 85.4276C68.1252 85.7124 67.9499 85.9708 67.7282 86.1875ZM61.2576 80.114L58.0973 83.1128L58.0689 83.1407C57.5929 83.5712 56.969 83.8077 56.323 83.8025C55.677 83.7973 55.057 83.5508 54.5882 83.1128C54.3588 82.8983 54.1761 82.6401 54.0512 82.3538C53.9263 82.0675 53.8619 81.7591 53.8619 81.4474C53.8619 81.1358 53.9263 80.8274 54.0512 80.5411C54.1761 80.2548 54.3588 79.9966 54.5882 79.7821L57.7444 76.7834C58.2185 76.3398 58.8473 76.0926 59.501 76.0926C60.1547 76.0926 60.7834 76.3398 61.2576 76.7834C61.4851 76.9956 61.6668 77.2509 61.7918 77.5339C61.9169 77.817 61.9827 78.122 61.9854 78.4307C61.988 78.7394 61.9274 79.0455 61.8073 79.3306C61.6871 79.6157 61.5098 79.874 61.286 80.09L61.2576 80.114ZM53.5253 75.24L50.3692 78.2388C49.8955 78.6832 49.2666 78.931 48.6126 78.931C47.9586 78.931 47.3297 78.6832 46.856 78.2388C46.6259 78.0243 46.4427 77.7658 46.3174 77.4791C46.1922 77.1924 46.1276 76.8836 46.1276 76.5714C46.1276 76.2593 46.1922 75.9505 46.3174 75.6638C46.4427 75.3771 46.6259 75.1186 46.856 74.9041L50.0162 71.9054C50.4902 71.463 51.1181 71.2165 51.7708 71.2165C52.4235 71.2165 53.0514 71.463 53.5253 71.9054C53.7554 72.1199 53.9387 72.3783 54.0639 72.665C54.1892 72.9517 54.2538 73.2605 54.2538 73.5727C54.2538 73.8848 54.1892 74.1937 54.0639 74.4803C53.9387 74.767 53.7554 75.0255 53.5253 75.24Z" fill="#008001"/>
</svg>
