<svg width="48" height="60" viewBox="0 0 48 60" fill="none" xmlns="http://www.w3.org/2000/svg">
<path fill-rule="evenodd" clip-rule="evenodd" d="M28.5077 12.7513L46.7548 30.9942C47.5522 31.7927 48 32.875 48 34.0035C48 35.132 47.5522 36.2143 46.7548 37.0128L39.1338 44.6296L36.1287 41.6245L43.7455 34.0035L36.1287 26.3846L3.00506 59.5061L0 56.5011L33.1236 23.3774L26.748 17.0017H0V12.7513H28.5077ZM35.1841 13.623C36.4073 14.4403 37.8454 14.8765 39.3165 14.8765C41.2886 14.8743 43.1792 14.0899 44.5737 12.6954C45.9682 11.301 46.7525 9.41033 46.7548 7.43827C46.7548 5.96712 46.3186 4.52901 45.5012 3.30579C44.6839 2.08257 43.5222 1.12919 42.163 0.566207C40.8039 0.00322288 39.3083 -0.14408 37.8654 0.142927C36.4225 0.429935 35.0971 1.13836 34.0569 2.17862C33.0166 3.21888 32.3082 4.54425 32.0212 5.98713C31.7342 7.43002 31.8815 8.9256 32.4445 10.2848C33.0075 11.6439 33.9608 12.8056 35.1841 13.623ZM37.5455 4.78769C38.0697 4.4374 38.686 4.25044 39.3165 4.25044C40.1617 4.25156 40.9718 4.58778 41.5694 5.18537C42.167 5.78296 42.5032 6.59315 42.5044 7.43827C42.5044 8.06876 42.3174 8.68509 41.9671 9.20933C41.6168 9.73356 41.119 10.1422 40.5365 10.3834C39.954 10.6247 39.313 10.6878 38.6946 10.5648C38.0762 10.4418 37.5082 10.1382 37.0624 9.6924C36.6166 9.24658 36.313 8.67856 36.19 8.06018C36.067 7.4418 36.1301 6.80084 36.3714 6.21834C36.6126 5.63584 37.0212 5.13797 37.5455 4.78769ZM4.25044 39.4993L16.1219 27.6278L19.127 30.6329L7.25549 42.5044L4.25044 39.4993ZM23.3774 59.5061C25.7248 59.5061 27.6278 57.6031 27.6278 55.2557C27.6278 52.9082 25.7248 51.0052 23.3774 51.0052C21.0299 51.0052 19.127 52.9082 19.127 55.2557C19.127 57.6031 21.0299 59.5061 23.3774 59.5061Z" fill="#008001"/>
</svg>
