<svg width="16" height="16" viewBox="0 0 16 16" fill="none" xmlns="http://www.w3.org/2000/svg">
<path d="M15.36 0H0.64C0.286 0 0 0.286 0 0.64V15.36C0 15.714 0.286 16 0.64 16H15.36C15.714 16 16 15.714 16 15.36V0.64C16 0.286 15.714 0 15.36 0ZM12.306 5.794C12.312 5.888 12.312 5.986 12.312 6.082C12.312 9.018 10.076 12.4 5.99 12.4C4.73 12.4 3.562 12.034 2.578 11.404C2.758 11.424 2.93 11.432 3.114 11.432C4.154 11.432 5.11 11.08 5.872 10.484C4.896 10.464 4.076 9.824 3.796 8.944C4.138 8.994 4.446 8.994 4.798 8.904C4.29545 8.8019 3.84375 8.52896 3.51963 8.13157C3.19551 7.73417 3.01897 7.23681 3.02 6.724V6.696C3.314 6.862 3.66 6.964 4.022 6.978C3.71768 6.77519 3.46812 6.50042 3.29542 6.17806C3.12273 5.8557 3.03225 5.4957 3.032 5.13C3.032 4.716 3.14 4.338 3.334 4.01C3.8918 4.69667 4.58786 5.25828 5.37693 5.65833C6.166 6.05838 7.03042 6.28791 7.914 6.332C7.6 4.822 8.728 3.6 10.084 3.6C10.724 3.6 11.3 3.868 11.706 4.3C12.208 4.206 12.688 4.018 13.116 3.766C12.95 4.28 12.602 4.714 12.14 4.988C12.588 4.94 13.02 4.816 13.42 4.642C13.118 5.086 12.74 5.48 12.306 5.794Z" fill="#629664"/>
</svg>
